<svg xmlns="http://www.w3.org/2000/svg" xmlns:xlink="http://www.w3.org/1999/xlink" width="46" zoomAndPan="magnify" viewBox="0 0 34.5 32.249999" height="43" preserveAspectRatio="xMidYMid meet" version="1.0"><defs><clipPath id="e47fcd292e"><path d="M 2.652344 0 L 31.234375 0 L 31.234375 31.515625 L 2.652344 31.515625 Z M 2.652344 0 " clip-rule="nonzero"/></clipPath></defs><g clip-path="url(#e47fcd292e)"><path fill="#efb810" d="M 24.738281 10.425781 C 24.785156 10.289062 24.804688 10.210938 24.835938 10.136719 C 24.933594 9.929688 25.019531 9.757812 25.269531 9.628906 C 25.5625 9.46875 25.769531 9.148438 26.019531 8.894531 C 26.050781 8.863281 26.070312 8.804688 26.113281 8.785156 C 26.214844 8.738281 26.242188 8.554688 26.394531 8.601562 C 26.542969 8.644531 26.523438 8.796875 26.554688 8.914062 C 26.582031 9.003906 26.621094 9.097656 26.652344 9.1875 C 26.699219 9.308594 26.757812 9.40625 26.894531 9.410156 C 27.035156 9.417969 27.058594 9.308594 27.105469 9.203125 C 27.28125 8.835938 27.550781 8.546875 27.910156 8.34375 C 28.09375 8.242188 28.28125 8.136719 28.382812 7.925781 C 28.433594 7.808594 28.523438 7.730469 28.695312 7.808594 C 28.917969 7.90625 29.101562 7.800781 29.246094 7.625 C 29.421875 7.421875 29.570312 7.195312 29.839844 7.089844 C 30.007812 7.023438 29.988281 6.867188 29.988281 6.710938 C 29.96875 6.113281 30.449219 5.925781 30.851562 6.011719 C 31.121094 6.070312 31.351562 6.410156 31.34375 6.683594 C 31.335938 6.925781 31.09375 7.21875 30.832031 7.265625 C 30.507812 7.324219 30.328125 7.527344 30.226562 7.820312 C 30.140625 8.050781 29.890625 8.140625 29.742188 8.332031 C 29.121094 9.109375 28.492188 9.894531 27.824219 10.640625 C 27.183594 11.355469 26.574219 12.085938 25.949219 12.8125 C 25.816406 12.960938 25.769531 13.101562 25.824219 13.308594 C 26.070312 13.125 26.195312 13.171875 26.152344 13.492188 C 26.136719 13.5625 26.191406 13.617188 26.222656 13.683594 C 26.289062 13.824219 26.332031 13.988281 26.191406 14.113281 C 26.039062 14.246094 26.03125 14.421875 25.988281 14.585938 C 25.855469 15.035156 25.6875 15.46875 25.273438 15.753906 C 25.164062 15.832031 25.167969 15.964844 25.28125 16.050781 C 25.359375 16.109375 25.464844 16.121094 25.550781 16.152344 C 25.628906 16.1875 25.785156 16.089844 25.785156 16.238281 C 25.785156 16.375 25.875 16.558594 25.6875 16.664062 C 25.59375 16.714844 25.574219 16.820312 25.535156 16.914062 C 25.484375 17.042969 25.40625 17.179688 25.269531 17.207031 C 24.96875 17.273438 24.941406 17.480469 24.96875 17.722656 C 24.988281 17.90625 25.019531 18.097656 25.03125 18.28125 C 25.046875 18.429688 25.03125 18.621094 24.847656 18.613281 C 24.679688 18.605469 24.585938 18.421875 24.625 18.253906 C 24.707031 17.933594 24.660156 17.605469 24.710938 17.285156 C 24.730469 17.160156 24.769531 17.003906 24.582031 16.984375 C 24.378906 16.964844 24.363281 17.121094 24.378906 17.265625 C 24.417969 17.761719 24.457031 18.273438 24.457031 18.769531 C 24.449219 19.398438 24.464844 20.027344 24.398438 20.652344 C 24.351562 21.113281 24.417969 21.570312 24.429688 22.035156 C 24.445312 22.570312 24.339844 23.09375 24.359375 23.625 C 24.363281 23.78125 24.304688 23.96875 24.105469 24.003906 C 23.886719 24.035156 23.867188 23.824219 23.796875 23.703125 C 23.738281 23.601562 23.71875 23.480469 23.730469 23.363281 C 23.78125 22.523438 23.691406 21.6875 23.742188 20.855469 C 23.816406 19.671875 23.769531 18.503906 23.730469 17.316406 C 23.722656 17.195312 23.738281 17.0625 23.625 16.945312 C 23.429688 17.117188 23.457031 17.351562 23.429688 17.566406 C 23.382812 17.960938 23.480469 18.351562 23.496094 18.742188 C 23.507812 19.1875 23.398438 19.621094 23.449219 20.066406 C 23.488281 20.386719 23.253906 20.609375 23.023438 20.589844 C 22.917969 20.582031 22.867188 20.53125 22.839844 20.429688 C 22.730469 19.980469 22.636719 19.527344 22.769531 19.066406 C 22.78125 19.011719 22.796875 18.941406 22.777344 18.886719 C 22.597656 18.339844 22.796875 17.78125 22.71875 17.234375 C 22.699219 17.109375 22.691406 16.976562 22.652344 16.859375 C 22.585938 16.671875 22.429688 16.59375 22.234375 16.625 C 22.023438 16.652344 22.023438 16.808594 22.035156 16.957031 C 22.097656 17.621094 21.964844 18.273438 21.996094 18.933594 C 22.003906 19.117188 21.914062 19.320312 21.695312 19.332031 C 21.449219 19.347656 21.382812 19.144531 21.355469 18.933594 C 21.292969 18.304688 21.382812 17.679688 21.363281 17.050781 C 21.355469 16.847656 21.3125 16.757812 21.101562 16.796875 C 21.015625 16.808594 20.925781 16.796875 20.832031 16.800781 C 20.652344 16.816406 20.519531 16.867188 20.519531 17.097656 C 20.527344 18.082031 20.335938 19.070312 20.449219 20.066406 C 20.527344 20.765625 20.402344 21.476562 20.371094 22.183594 C 20.363281 22.28125 20.335938 22.378906 20.347656 22.480469 C 20.453125 23.261719 20.308594 24.046875 20.347656 24.832031 C 20.371094 25.246094 20.5 25.644531 20.46875 26.0625 C 20.421875 26.613281 20.371094 27.15625 20.519531 27.703125 C 20.558594 27.855469 20.511719 28.039062 20.5 28.203125 C 20.472656 28.515625 20.460938 28.824219 20.511719 29.136719 C 20.578125 29.546875 20.507812 29.96875 20.433594 30.367188 C 20.382812 30.667969 20.5 30.972656 20.363281 31.269531 C 20.296875 31.414062 20.230469 31.503906 20.074219 31.511719 C 19.910156 31.515625 19.867188 31.394531 19.8125 31.273438 C 19.664062 30.949219 19.675781 30.601562 19.734375 30.261719 C 19.761719 30.085938 19.800781 29.902344 19.753906 29.730469 C 19.664062 29.386719 19.753906 29.042969 19.785156 28.703125 C 19.832031 28.179688 19.851562 27.679688 19.726562 27.15625 C 19.648438 26.800781 19.6875 26.429688 19.722656 26.070312 C 19.746094 25.792969 19.785156 25.519531 19.703125 25.25 C 19.546875 24.761719 19.695312 24.277344 19.722656 23.792969 C 19.734375 23.582031 19.722656 23.386719 19.703125 23.183594 C 19.664062 22.765625 19.648438 22.347656 19.746094 21.929688 C 19.800781 21.714844 19.667969 21.503906 19.703125 21.289062 C 19.828125 20.503906 19.578125 19.71875 19.707031 18.941406 C 19.820312 18.261719 19.609375 17.585938 19.742188 16.914062 C 19.765625 16.777344 19.734375 16.613281 19.675781 16.480469 C 19.617188 16.34375 19.511719 16.1875 19.386719 16.113281 C 19.238281 16.03125 19.140625 16.207031 19.042969 16.3125 C 18.921875 16.433594 18.726562 16.3125 18.621094 16.480469 C 18.5 16.675781 18.40625 16.875 18.453125 17.117188 C 18.542969 17.679688 18.347656 18.226562 18.394531 18.785156 C 18.40625 18.941406 18.277344 18.980469 18.179688 19.023438 C 18.066406 19.078125 18 18.980469 17.9375 18.90625 C 17.832031 18.789062 17.804688 18.652344 17.804688 18.503906 C 17.8125 18 17.785156 17.496094 17.820312 16.996094 C 17.832031 16.710938 17.628906 16.585938 17.476562 16.414062 C 17.417969 16.351562 17.328125 16.371094 17.277344 16.449219 C 17.210938 16.546875 17.152344 16.644531 17.152344 16.769531 C 17.152344 18.292969 17.15625 19.824219 17.152344 21.347656 C 17.152344 22.339844 17.136719 23.328125 17.136719 24.324219 C 17.136719 24.5 17.15625 24.675781 17.152344 24.851562 C 17.136719 25.0625 17.066406 25.269531 16.835938 25.285156 C 16.609375 25.296875 16.550781 25.109375 16.496094 24.890625 C 16.367188 24.328125 16.511719 23.773438 16.496094 23.21875 C 16.492188 22.753906 16.457031 22.277344 16.433594 21.816406 C 16.40625 21.386719 16.289062 20.921875 16.445312 20.484375 C 16.503906 20.3125 16.503906 20.136719 16.503906 19.960938 C 16.53125 18.875 16.492188 17.800781 16.328125 16.730469 C 16.289062 16.46875 16.175781 16.226562 15.960938 16.09375 C 15.746094 15.957031 15.320312 16.253906 15.253906 16.527344 C 15.148438 16.992188 15.128906 17.460938 15.203125 17.933594 C 15.269531 18.378906 15.253906 18.816406 15.1875 19.253906 C 15.148438 19.535156 15.105469 19.816406 15.183594 20.105469 C 15.207031 20.203125 15.175781 20.300781 15.136719 20.390625 C 15.078125 20.53125 15.019531 20.6875 14.84375 20.6875 C 14.632812 20.6875 14.605469 20.511719 14.5625 20.359375 C 14.484375 20.097656 14.476562 19.828125 14.488281 19.546875 C 14.527344 18.644531 14.566406 17.742188 14.425781 16.847656 C 14.386719 16.625 14.285156 16.371094 13.964844 16.363281 C 13.621094 16.355469 13.421875 16.496094 13.371094 16.835938 C 13.285156 17.359375 13.300781 17.886719 13.332031 18.402344 C 13.363281 18.925781 13.398438 19.445312 13.320312 19.960938 C 13.265625 20.332031 13.273438 20.707031 13.351562 21.074219 C 13.363281 21.117188 13.363281 21.171875 13.363281 21.214844 C 13.363281 22.375 13.378906 23.53125 13.359375 24.6875 C 13.351562 24.96875 13.304688 25.25 13.304688 25.539062 C 13.304688 25.703125 13.253906 25.886719 13.058594 25.933594 C 12.941406 25.964844 12.789062 25.925781 12.75 25.820312 C 12.679688 25.644531 12.605469 25.429688 12.640625 25.25 C 12.710938 24.886719 12.660156 24.546875 12.625 24.183594 C 12.574219 23.6875 12.664062 23.171875 12.703125 22.667969 C 12.710938 22.550781 12.757812 22.417969 12.703125 22.320312 C 12.554688 22.007812 12.585938 21.699219 12.652344 21.375 C 12.699219 21.144531 12.699219 20.910156 12.617188 20.671875 C 12.554688 20.476562 12.554688 20.28125 12.597656 20.066406 C 12.722656 19.503906 12.722656 18.933594 12.613281 18.371094 C 12.574219 18.183594 12.558594 17.992188 12.605469 17.789062 C 12.679688 17.449219 12.421875 17.136719 12.476562 16.78125 C 12.488281 16.714844 12.378906 16.714844 12.332031 16.734375 C 12.234375 16.78125 12.109375 16.757812 12.070312 16.917969 C 11.957031 17.476562 11.976562 18.039062 12.035156 18.59375 C 12.078125 18.960938 12.097656 19.3125 12.035156 19.679688 C 12.011719 19.84375 12.003906 20.011719 12.015625 20.183594 C 12.078125 20.988281 11.992188 21.792969 11.984375 22.597656 C 11.976562 23.160156 12.109375 23.722656 12.078125 24.289062 C 12.023438 25.265625 12.117188 26.246094 11.992188 27.226562 C 11.964844 27.417969 12.023438 27.597656 11.9375 27.800781 C 11.878906 27.941406 11.796875 27.980469 11.691406 27.992188 C 11.566406 28.003906 11.480469 27.933594 11.414062 27.816406 C 11.191406 27.398438 11.226562 26.953125 11.277344 26.519531 C 11.355469 25.914062 11.382812 25.308594 11.265625 24.703125 C 11.1875 24.308594 11.335938 23.925781 11.3125 23.523438 C 11.296875 23.363281 11.304688 23.199219 11.257812 23.027344 C 11.121094 22.550781 11.292969 22.078125 11.324219 21.601562 C 11.351562 21.253906 11.382812 20.914062 11.3125 20.574219 C 11.199219 20.03125 11.421875 19.496094 11.316406 18.960938 C 11.226562 18.484375 11.257812 18 11.253906 17.519531 C 11.253906 17.265625 11.132812 17.042969 11.035156 16.820312 C 10.984375 16.695312 10.898438 16.683594 10.8125 16.796875 C 10.714844 16.917969 10.617188 17.042969 10.480469 17.128906 C 10.265625 17.257812 10.074219 17.195312 10.003906 16.953125 C 9.984375 16.878906 9.988281 16.777344 9.898438 16.769531 C 9.808594 16.761719 9.792969 16.859375 9.753906 16.925781 C 9.324219 17.597656 9.421875 18.363281 9.425781 19.097656 C 9.441406 19.875 9.445312 20.648438 9.386719 21.417969 C 9.347656 21.941406 9.550781 22.453125 9.472656 22.976562 C 9.367188 23.628906 9.484375 24.289062 9.363281 24.9375 C 9.335938 25.089844 9.269531 25.191406 9.113281 25.226562 C 8.925781 25.269531 8.882812 25.109375 8.820312 24.988281 C 8.734375 24.832031 8.695312 24.664062 8.703125 24.480469 C 8.722656 23.988281 8.683594 23.5 8.753906 23.007812 C 8.824219 22.511719 8.628906 22.007812 8.707031 21.511719 C 8.824219 20.8125 8.589844 20.097656 8.800781 19.40625 C 8.8125 19.351562 8.804688 19.285156 8.792969 19.226562 C 8.726562 18.882812 8.675781 18.527344 8.753906 18.175781 C 8.871094 17.660156 8.675781 17.199219 8.472656 16.742188 C 8.316406 16.382812 8.394531 16.109375 8.707031 15.867188 C 8.804688 15.792969 8.839844 15.730469 8.800781 15.625 C 8.609375 15.160156 8.425781 14.6875 8.101562 14.304688 C 7.898438 14.0625 7.890625 13.742188 7.734375 13.484375 C 7.648438 13.355469 7.78125 13.34375 7.871094 13.347656 C 8.007812 13.355469 8.113281 13.347656 8.054688 13.164062 C 8.039062 13.132812 8.054688 13.082031 8.101562 13.066406 C 8.53125 12.988281 8.199219 12.859375 8.125 12.746094 C 7.800781 12.269531 7.339844 11.902344 7.015625 11.414062 C 6.738281 11.007812 6.359375 10.671875 6.046875 10.292969 C 5.46875 9.601562 4.867188 8.921875 4.285156 8.234375 C 4.03125 7.933594 3.835938 7.59375 3.46875 7.390625 C 3.292969 7.292969 3.082031 7.277344 2.925781 7.121094 C 2.679688 6.886719 2.652344 6.277344 2.972656 6.074219 C 3.234375 5.914062 3.484375 5.792969 3.785156 6.003906 C 4.03125 6.179688 4.183594 6.394531 4.144531 6.710938 C 4.109375 6.957031 4.207031 7.117188 4.445312 7.214844 C 4.777344 7.363281 5.046875 7.632812 5.398438 7.769531 C 5.574219 7.839844 5.6875 7.796875 5.730469 7.671875 C 5.824219 7.398438 6.007812 7.457031 6.175781 7.519531 C 6.375 7.601562 6.570312 7.703125 6.582031 7.964844 C 6.582031 8.011719 6.613281 8.078125 6.648438 8.089844 C 6.917969 8.214844 6.957031 8.476562 6.976562 8.703125 C 7.019531 9.195312 7.355469 9.429688 7.707031 9.667969 C 8.113281 9.933594 8.550781 10.128906 9.023438 10.269531 C 9.277344 10.339844 9.414062 10.28125 9.472656 10.039062 C 9.566406 9.671875 9.675781 9.308594 9.722656 8.925781 C 9.765625 8.527344 9.742188 8.140625 9.511719 7.796875 C 9.347656 7.546875 9.347656 7.277344 9.363281 7.003906 C 9.363281 6.953125 9.335938 6.878906 9.402344 6.847656 C 9.472656 6.816406 9.53125 6.855469 9.585938 6.898438 C 9.695312 6.996094 9.792969 7.21875 9.957031 7.082031 C 10.082031 6.984375 10.007812 6.78125 9.957031 6.613281 C 9.742188 5.925781 9.546875 5.238281 9.472656 4.519531 C 9.460938 4.363281 9.363281 4.304688 9.207031 4.265625 C 8.78125 4.152344 8.492188 3.871094 8.453125 3.421875 C 8.421875 3.046875 8.523438 2.714844 8.871094 2.484375 C 9.246094 2.238281 9.851562 2.425781 10.007812 2.863281 C 10.109375 3.144531 10.160156 3.421875 10.035156 3.722656 C 9.96875 3.886719 9.996094 4.042969 10.148438 4.191406 C 10.511719 4.566406 10.722656 5.042969 10.953125 5.5 C 11.234375 6.074219 11.566406 6.617188 11.933594 7.140625 C 12.324219 7.710938 12.671875 8.304688 13.136719 8.828125 C 13.324219 9.046875 13.574219 9.175781 13.804688 9.328125 C 13.855469 9.359375 13.925781 9.371094 13.953125 9.308594 C 14.183594 8.789062 14.660156 8.441406 14.882812 7.925781 C 14.921875 7.835938 14.960938 7.71875 14.921875 7.640625 C 14.785156 7.34375 14.90625 7.082031 14.980469 6.816406 C 15.105469 6.34375 14.988281 5.878906 14.96875 5.410156 C 14.953125 5.152344 14.992188 4.925781 15.183594 4.730469 C 15.25 4.664062 15.28125 4.558594 15.308594 4.46875 C 15.386719 4.207031 15.496094 4.007812 15.835938 4.09375 C 16.046875 4.152344 16.058594 3.96875 16.09375 3.824219 C 16.195312 3.355469 16.300781 2.882812 16.425781 2.414062 C 16.476562 2.21875 16.417969 2.066406 16.273438 1.980469 C 15.890625 1.757812 15.730469 1.253906 15.816406 0.871094 C 15.902344 0.472656 16.203125 0.175781 16.773438 0.0703125 C 17.15625 0 17.453125 0.0273438 17.699219 0.351562 C 17.929688 0.648438 18.007812 1.28125 17.734375 1.515625 C 17.277344 1.910156 17.359375 2.398438 17.417969 2.871094 C 17.472656 3.296875 17.53125 3.746094 17.773438 4.125 C 17.800781 4.171875 17.8125 4.246094 17.804688 4.296875 C 17.726562 4.828125 17.949219 5.296875 18.105469 5.773438 C 18.21875 6.109375 18.425781 6.394531 18.648438 6.683594 C 18.78125 6.859375 18.949219 7.070312 18.734375 7.320312 C 18.601562 7.46875 18.636719 7.632812 18.722656 7.808594 C 18.996094 8.378906 19.34375 8.882812 19.847656 9.273438 C 19.925781 9.339844 19.984375 9.398438 20.0625 9.328125 C 20.355469 9.058594 20.664062 8.796875 20.925781 8.496094 C 21.171875 8.214844 21.207031 7.867188 21.035156 7.535156 C 20.890625 7.253906 20.957031 7.011719 21.054688 6.742188 C 21.191406 6.375 21.421875 6.082031 21.710938 5.828125 C 21.816406 5.734375 21.933594 5.636719 21.972656 5.511719 C 22.082031 5.191406 22.207031 5.335938 22.332031 5.480469 C 22.515625 5.703125 22.738281 5.722656 22.960938 5.585938 C 23.398438 5.3125 23.652344 4.867188 23.882812 4.421875 C 23.925781 4.328125 23.972656 4.226562 24.03125 4.140625 C 24.207031 3.863281 24.371094 3.644531 24.164062 3.28125 C 24.011719 3.027344 24.386719 2.472656 24.679688 2.378906 C 24.769531 2.355469 24.867188 2.328125 24.953125 2.289062 C 25.488281 2.054688 25.871094 2.316406 26.050781 2.890625 C 26.214844 3.402344 26.050781 3.785156 25.59375 4.0625 C 25.429688 4.160156 25.207031 4.035156 25.058594 4.246094 C 25.007812 4.316406 24.90625 4.394531 24.914062 4.472656 C 24.941406 4.898438 24.738281 5.304688 24.769531 5.722656 C 24.796875 6.023438 24.71875 6.3125 24.644531 6.59375 C 24.449219 7.351562 24.261719 8.117188 24.363281 8.90625 C 24.425781 9.445312 24.496094 9.914062 24.738281 10.425781 Z M 17.019531 11.191406 C 16.386719 11.253906 15.816406 11.28125 15.253906 11.375 C 14.582031 11.484375 13.902344 11.609375 13.226562 11.699219 C 12.625 11.785156 12.042969 11.9375 11.449219 12.046875 C 10.984375 12.132812 10.511719 12.222656 10.070312 12.394531 C 9.753906 12.511719 9.40625 12.578125 9.140625 12.804688 C 9.101562 12.839844 9.054688 12.871094 9.066406 12.921875 C 9.09375 13 9.164062 12.980469 9.21875 12.960938 C 9.375 12.917969 9.53125 12.824219 9.6875 12.804688 C 10.269531 12.746094 10.839844 12.601562 11.414062 12.5 C 11.644531 12.460938 11.875 12.394531 12.109375 12.386719 C 12.777344 12.375 13.4375 12.261719 14.089844 12.171875 C 15.125 12.035156 16.15625 12.007812 17.191406 11.980469 C 17.5625 11.976562 17.9375 12 18.308594 12.019531 C 18.503906 12.035156 18.695312 11.921875 18.890625 11.976562 C 20.207031 12.289062 21.574219 12.25 22.894531 12.550781 C 23.46875 12.679688 24.0625 12.746094 24.640625 12.910156 C 24.726562 12.9375 24.863281 13.066406 24.921875 12.921875 C 24.980469 12.78125 24.777344 12.773438 24.71875 12.679688 C 24.699219 12.65625 24.652344 12.636719 24.613281 12.628906 C 24.078125 12.5 23.585938 12.242188 23.03125 12.144531 C 22.4375 12.039062 21.859375 11.832031 21.265625 11.738281 C 20.734375 11.660156 20.191406 11.601562 19.675781 11.492188 C 18.785156 11.300781 17.859375 11.394531 17.019531 11.191406 Z M 24.03125 15.773438 C 24.144531 15.734375 24.265625 15.808594 24.300781 15.695312 C 24.332031 15.570312 24.203125 15.570312 24.136719 15.53125 C 24.078125 15.5 24.011719 15.480469 23.945312 15.453125 C 23.261719 15.199219 22.515625 15.179688 21.816406 14.988281 C 21.382812 14.871094 20.9375 14.957031 20.5 14.871094 C 19.988281 14.773438 19.480469 14.695312 18.957031 14.695312 C 18.257812 14.703125 17.558594 14.6875 16.855469 14.667969 C 15.992188 14.648438 15.125 14.65625 14.265625 14.75 C 13.488281 14.832031 12.710938 14.917969 11.933594 15.035156 C 11.652344 15.082031 11.375 15.140625 11.101562 15.1875 C 10.695312 15.257812 10.269531 15.308594 9.878906 15.480469 C 9.808594 15.511719 9.726562 15.558594 9.765625 15.65625 C 9.800781 15.734375 9.898438 15.722656 9.949219 15.703125 C 10.296875 15.539062 10.671875 15.539062 11.035156 15.546875 C 11.886719 15.558594 12.710938 15.316406 13.5625 15.351562 C 14.175781 15.371094 14.796875 15.269531 15.40625 15.269531 C 16.253906 15.269531 17.113281 15.289062 17.960938 15.34375 C 19.003906 15.402344 20.046875 15.304688 21.082031 15.429688 C 21.453125 15.472656 21.835938 15.382812 22.195312 15.488281 C 22.800781 15.65625 23.46875 15.511719 24.03125 15.773438 Z M 17.328125 9.089844 C 17.320312 8.921875 17.21875 8.75 17.117188 8.585938 C 17.054688 8.476562 16.976562 8.304688 16.855469 8.304688 C 16.734375 8.304688 16.757812 8.496094 16.714844 8.59375 C 16.6875 8.644531 16.648438 8.691406 16.621094 8.746094 C 16.492188 8.992188 16.347656 9.234375 16.3125 9.523438 C 16.292969 9.679688 16.222656 9.894531 16.386719 9.929688 C 16.535156 9.953125 16.667969 9.757812 16.738281 9.585938 C 16.746094 9.566406 16.746094 9.546875 16.746094 9.527344 C 16.746094 9.410156 16.796875 9.40625 16.894531 9.4375 C 17.152344 9.527344 17.328125 9.40625 17.328125 9.089844 Z M 11.296875 8.953125 C 11.277344 8.964844 11.253906 8.980469 11.234375 8.992188 C 11.273438 9.109375 11.304688 9.226562 11.351562 9.347656 C 11.488281 9.671875 11.539062 10.039062 11.796875 10.3125 C 11.855469 10.378906 12.324219 10.410156 12.378906 10.351562 C 12.410156 10.320312 12.402344 10.289062 12.378906 10.25 C 12.078125 9.765625 11.703125 9.347656 11.296875 8.953125 Z M 22.671875 9.078125 C 22.566406 9.148438 22.457031 9.203125 22.382812 9.285156 C 22.101562 9.628906 21.828125 9.972656 21.558594 10.320312 C 21.460938 10.453125 21.539062 10.484375 21.664062 10.492188 C 21.925781 10.503906 22.304688 10.234375 22.421875 9.992188 C 22.554688 9.71875 22.679688 9.445312 22.671875 9.078125 Z M 9.519531 13.382812 C 9.527344 13.289062 9.492188 13.230469 9.394531 13.222656 C 9.328125 13.222656 9.238281 13.238281 9.238281 13.316406 C 9.238281 13.425781 9.34375 13.464844 9.433594 13.492188 C 9.519531 13.519531 9.519531 13.441406 9.519531 13.382812 Z M 9.519531 13.382812 " fill-opacity="1" fill-rule="nonzero"/></g><path fill="#efb810" d="M 27.074219 4.414062 C 27.09375 4.625 27.046875 4.792969 26.957031 4.945312 C 26.902344 5.03125 26.824219 5.148438 26.699219 5.089844 C 26.601562 5.050781 26.542969 4.964844 26.542969 4.832031 C 26.542969 4.617188 26.640625 4.441406 26.71875 4.25 C 26.757812 4.152344 26.855469 4.125 26.96875 4.144531 C 27.15625 4.199219 27.046875 4.34375 27.074219 4.414062 Z M 27.074219 4.414062 " fill-opacity="1" fill-rule="nonzero"/><path fill="#efb810" d="M 12.660156 30.019531 C 12.632812 30.183594 12.632812 30.359375 12.429688 30.351562 C 12.238281 30.347656 12.234375 30.164062 12.253906 30.046875 C 12.296875 29.769531 12.304688 29.503906 12.292969 29.226562 C 12.292969 29.148438 12.316406 29.085938 12.402344 29.085938 C 12.496094 29.085938 12.46875 29.164062 12.476562 29.214844 C 12.546875 29.484375 12.558594 29.769531 12.660156 30.019531 Z M 12.660156 30.019531 " fill-opacity="1" fill-rule="nonzero"/><path fill="#efb810" d="M 23.742188 25.789062 C 23.742188 25.78125 23.738281 25.769531 23.742188 25.761719 C 23.769531 25.609375 23.621094 25.363281 23.902344 25.351562 C 24.164062 25.335938 24.070312 25.605469 24.117188 25.75 C 24.15625 25.871094 24.136719 26.015625 24.128906 26.152344 C 24.128906 26.253906 24.117188 26.351562 23.972656 26.351562 C 23.847656 26.351562 23.761719 26.304688 23.757812 26.167969 C 23.75 26.042969 23.742188 25.914062 23.742188 25.789062 C 23.738281 25.789062 23.738281 25.789062 23.742188 25.789062 Z M 23.742188 25.789062 " fill-opacity="1" fill-rule="nonzero"/><path fill="#efb810" d="M 17.976562 23.039062 C 17.957031 23.164062 17.9375 23.296875 17.792969 23.316406 C 17.636719 23.34375 17.578125 23.210938 17.570312 23.101562 C 17.550781 22.84375 17.558594 22.589844 17.558594 22.335938 C 17.558594 22.269531 17.578125 22.21875 17.65625 22.222656 C 17.707031 22.222656 17.773438 22.242188 17.773438 22.289062 C 17.777344 22.558594 17.941406 22.785156 17.976562 23.039062 Z M 17.976562 23.039062 " fill-opacity="1" fill-rule="nonzero"/><path fill="#efb810" d="M 15.960938 26.441406 C 15.992188 26.292969 15.960938 26.070312 16.183594 26.070312 C 16.398438 26.0625 16.417969 26.285156 16.425781 26.441406 C 16.433594 26.574219 16.40625 26.75 16.203125 26.753906 C 16 26.75 15.980469 26.605469 15.960938 26.441406 Z M 15.960938 26.441406 " fill-opacity="1" fill-rule="nonzero"/></svg>