<svg xmlns="http://www.w3.org/2000/svg" xmlns:xlink="http://www.w3.org/1999/xlink" width="46" zoomAndPan="magnify" viewBox="0 0 34.5 32.249999" height="43" preserveAspectRatio="xMidYMid meet" version="1.0"><defs><g/><clipPath id="878195e778"><path d="M 0.148438 0 L 33.863281 0 L 33.863281 31.515625 L 0.148438 31.515625 Z M 0.148438 0 " clip-rule="nonzero"/></clipPath></defs><g clip-path="url(#878195e778)"><path stroke-linecap="butt" transform="matrix(0.732954, 0, 0, 0.732954, 1.75782, 1.099432)" fill="none" stroke-linejoin="miter" d="M 3.650668 36.658918 L 3.821211 37.735468 L 4.780514 38.103201 L 10.424409 38.049906 L 12.039235 37.895352 L 13.275669 37.511631 L 14.469468 36.658918 L 14.890495 35.795545 L 15.482065 34.990797 L 15.967045 33.914247 L 17.528576 31.276165 L 18.013557 30.252909 L 18.711716 29.55475 L 19.734972 27.508239 L 20.326542 26.70882 L 20.971406 26.756785 L 21.616271 27.561533 L 26.999023 36.605623 L 28.022279 37.61822 L 29.312008 38.20979 L 35.494179 37.895352 L 36.570729 38.049906 L 37.647279 37.788763 L 37.807163 36.541669 L 37.162299 35.203976 L 35.979159 33.482561 L 35.494179 32.560564 L 33.618209 29.991766 L 33.234488 29.277619 L 32.541659 28.323646 L 31.518403 26.431688 L 29.898248 24.342541 L 27.430709 20.190893 L 26.785845 19.391474 L 26.460748 18.037792 L 26.721891 16.753393 L 27.484004 15.778102 L 28.560554 14.109982 L 29.098829 13.102714 L 32.909392 7.666667 L 33.394372 6.691377 L 36.517434 1.846899 L 36.245632 0.717054 L 35.062492 0.349322 L 33.341078 0.455911 L 29.466562 0.296027 L 28.453965 0.402616 L 27.153577 0.887597 L 25.922472 1.687016 L 25.490786 2.715601 L 23.716077 5.18314 L 23.332356 6.25969 L 20.918112 9.649226 L 20.171988 9.819768 L 19.633712 8.951067 L 19.090108 7.874516 L 18.503867 7.176357 L 18.120146 6.206396 L 15.375476 1.793605 L 14.24563 0.887597 L 12.961231 0.296027 L 11.778092 0.455911 L 10.701541 0.455911 L 9.465107 0.296027 L 7.796987 0.509206 L 6.182161 0.455911 L 4.951056 0.781008 L 4.828479 1.964148 L 5.372083 3.147287 L 6.720436 4.921997 L 7.573149 6.483528 L 9.086715 8.572675 L 10.21656 10.512598 L 10.861425 11.317346 L 11.447665 12.340602 L 12.09253 13.156009 L 13.16908 14.978683 L 13.931192 15.948645 L 14.405514 16.753393 L 14.730611 18.208335 L 14.522762 19.391474 L 13.275669 21.166184 L 12.209778 23.095448 L 11.671502 23.750971 L 11.133227 24.710273 L 10.424409 25.419091 L 9.347859 27.348355 L 8.702994 28.153103 L 6.986909 31.015022 L 5.803769 32.613859 L 5.265494 33.642444 L 4.673924 34.399227 L 4.135649 35.411824 Z M 3.650668 36.658918 " stroke="#efb810" stroke-width="4.034947" stroke-opacity="1" stroke-miterlimit="4"/></g><g fill="#efb810" fill-opacity="1"><g transform="translate(3.922326, 28.951702)"><g><path d="M 0.511719 -0.984375 L 0.628906 -0.195312 L 1.339844 0.078125 L 5.480469 0.0390625 L 6.664062 -0.078125 L 7.570312 -0.355469 L 8.4375 -0.984375 L 8.753906 -1.617188 L 9.1875 -2.207031 L 9.539062 -2.996094 L 10.683594 -4.929688 L 11.039062 -5.675781 L 11.550781 -6.191406 L 12.300781 -7.6875 L 12.734375 -8.28125 L 13.207031 -8.238281 L 13.679688 -7.648438 L 17.625 -1.023438 L 18.371094 -0.277344 L 19.320312 0.15625 L 23.851562 -0.078125 L 24.640625 0.0390625 L 25.429688 -0.15625 L 25.546875 -1.066406 L 25.074219 -2.050781 L 24.207031 -3.3125 L 23.851562 -3.980469 L 22.472656 -5.875 L 22.195312 -6.386719 L 21.683594 -7.097656 L 20.933594 -8.476562 L 19.753906 -10.015625 L 17.9375 -13.050781 L 17.464844 -13.640625 L 17.230469 -14.625 L 17.425781 -15.574219 L 17.976562 -16.28125 L 18.765625 -17.503906 L 19.160156 -18.253906 L 21.960938 -22.234375 L 22.316406 -22.945312 L 24.601562 -26.492188 L 24.40625 -27.320312 L 23.535156 -27.597656 L 22.277344 -27.519531 L 19.4375 -27.636719 L 18.6875 -27.558594 L 17.742188 -27.203125 L 16.835938 -26.613281 L 16.519531 -25.863281 L 15.21875 -24.050781 L 14.941406 -23.261719 L 13.167969 -20.777344 L 12.617188 -20.660156 L 12.222656 -21.289062 L 11.828125 -22.078125 L 11.394531 -22.589844 L 11.117188 -23.300781 L 9.105469 -26.535156 L 8.28125 -27.203125 L 7.332031 -27.636719 L 6.464844 -27.519531 L 5.675781 -27.519531 L 4.769531 -27.636719 L 3.546875 -27.480469 L 2.367188 -27.519531 L 1.457031 -27.28125 L 1.378906 -26.414062 L 1.773438 -25.546875 L 2.761719 -24.246094 L 3.390625 -23.101562 L 4.496094 -21.566406 L 5.324219 -20.148438 L 5.796875 -19.554688 L 6.230469 -18.804688 L 6.703125 -18.214844 L 7.492188 -16.875 L 8.042969 -16.164062 L 8.398438 -15.574219 L 8.632812 -14.507812 L 8.476562 -13.640625 L 7.570312 -12.339844 L 6.78125 -10.921875 L 6.386719 -10.449219 L 5.992188 -9.738281 L 5.480469 -9.226562 L 4.691406 -7.804688 L 4.21875 -7.214844 L 2.957031 -5.125 L 2.089844 -3.941406 L 1.695312 -3.195312 L 1.261719 -2.640625 L 0.867188 -1.890625 Z M 0.511719 -0.984375 "/></g></g></g></svg>